<svg width="34" height="32" viewBox="0 0 34 32" fill="none" xmlns="http://www.w3.org/2000/svg">
<path d="M9.56567 12.5714C8.39043 12.5714 7.44094 13.5929 7.44094 14.8571C7.44094 16.1214 8.39043 17.1429 9.56567 17.1429C10.7409 17.1429 11.6904 16.1214 11.6904 14.8571C11.6904 13.5929 10.7409 12.5714 9.56567 12.5714ZM17.0022 12.5714C15.827 12.5714 14.8775 13.5929 14.8775 14.8571C14.8775 16.1214 15.827 17.1429 17.0022 17.1429C18.1774 17.1429 19.1269 16.1214 19.1269 14.8571C19.1269 13.5929 18.1774 12.5714 17.0022 12.5714ZM24.4387 12.5714C23.2635 12.5714 22.314 13.5929 22.314 14.8571C22.314 16.1214 23.2635 17.1429 24.4387 17.1429C25.614 17.1429 26.5635 16.1214 26.5635 14.8571C26.5635 13.5929 25.614 12.5714 24.4387 12.5714ZM17.0022 0C7.61358 0 0.00440669 6.65 0.00440669 14.8571C0.00440669 18.2571 1.32572 21.3714 3.51684 23.8786C2.52752 26.6929 0.46919 29.0786 0.435991 29.1071C-0.00223307 29.6071 -0.121749 30.3357 0.130562 30.9643C0.382873 31.5929 0.960533 32 1.59795 32C5.68141 32 8.90169 30.1643 10.8339 28.6929C12.7528 29.3429 14.8244 29.7143 17.0022 29.7143C26.3908 29.7143 34 23.0643 34 14.8571C34 6.65 26.3908 0 17.0022 0ZM17.0022 26.2857C15.2294 26.2857 13.4765 25.9929 11.7966 25.4214L10.2894 24.9071L8.99465 25.8929C8.04516 26.6143 6.74377 27.4214 5.17678 27.9643C5.66149 27.1 6.13291 26.1286 6.4981 25.0929L7.20191 23.0857L5.83412 21.5286C4.63232 20.15 3.19149 17.8714 3.19149 14.8571C3.19149 8.55714 9.38639 3.42857 17.0022 3.42857C24.618 3.42857 30.8129 8.55714 30.8129 14.8571C30.8129 21.1571 24.618 26.2857 17.0022 26.2857Z" fill="white"/>
</svg>
