<svg width="31" height="31" viewBox="0 0 31 31" fill="none" xmlns="http://www.w3.org/2000/svg">
<path d="M26.6359 0.39206L1.45038 14.9174C-0.632271 16.1223 -0.432482 19.2042 1.79547 20.1184L8.71545 22.9823V28.0925C8.71545 30.9019 12.2995 32.0584 13.9584 29.8242L16.6101 26.2458L23.3848 29.0431C23.742 29.1884 24.1174 29.2611 24.4927 29.2611C24.9892 29.2611 25.4796 29.1339 25.9215 28.8857C26.6965 28.4498 27.2293 27.6748 27.3685 26.7968L30.9647 3.35283C31.334 0.924878 28.7307 -0.812835 26.6359 0.39206ZM11.6215 28.0925V24.1812L13.8373 25.0954L11.6215 28.0925ZM24.4927 26.3548L15.1814 22.51L23.6694 10.2613C24.3172 9.32281 23.0942 8.23296 22.2345 8.97769L9.42984 20.1366L2.90339 17.4362L28.089 2.90478L24.4927 26.3548Z" fill="white"/>
</svg>
