<svg width="36" height="24" viewBox="0 0 36 24" fill="none" xmlns="http://www.w3.org/2000/svg">
<path d="M34.5 0H7C5.69637 0 4.58481 0.836063 4.172 2H1.5C0.671562 2 0 2.67156 0 3.5V20.5C0 22.433 1.567 24 3.5 24H34.5C35.3284 24 36 23.3284 36 22.5V1.5C36 0.671562 35.3284 0 34.5 0ZM3 20.5V5H4V20.5C4 20.7757 3.77569 21 3.5 21C3.22431 21 3 20.7757 3 20.5ZM33 21H6.96387C6.98725 20.8366 7 20.6698 7 20.5V3H33V21ZM10.75 13.5H19.25C19.6642 13.5 20 13.1642 20 12.75V6.75C20 6.33581 19.6642 6 19.25 6H10.75C10.3358 6 10 6.33581 10 6.75V12.75C10 13.1642 10.3358 13.5 10.75 13.5ZM12.5 8.5H17.5V11H12.5V8.5ZM10 17.25V15.75C10 15.3358 10.3358 15 10.75 15H19.25C19.6642 15 20 15.3358 20 15.75V17.25C20 17.6642 19.6642 18 19.25 18H10.75C10.3358 18 10 17.6642 10 17.25ZM22 17.25V15.75C22 15.3358 22.3358 15 22.75 15H29.25C29.6642 15 30 15.3358 30 15.75V17.25C30 17.6642 29.6642 18 29.25 18H22.75C22.3358 18 22 17.6642 22 17.25ZM22 8.25V6.75C22 6.33581 22.3358 6 22.75 6H29.25C29.6642 6 30 6.33581 30 6.75V8.25C30 8.66419 29.6642 9 29.25 9H22.75C22.3358 9 22 8.66419 22 8.25ZM22 12.75V11.25C22 10.8358 22.3358 10.5 22.75 10.5H29.25C29.6642 10.5 30 10.8358 30 11.25V12.75C30 13.1642 29.6642 13.5 29.25 13.5H22.75C22.3358 13.5 22 13.1642 22 12.75Z" fill="white"/>
</svg>
