<svg width="37" height="33" viewBox="0 0 37 33" fill="none" xmlns="http://www.w3.org/2000/svg">
<path d="M25.8427 22.2315L27.8983 20.1693C28.2195 19.847 28.7784 20.0726 28.7784 20.5366V29.9067C28.7784 31.6145 27.3973 33 25.695 33H3.0834C1.38111 33 0 31.6145 0 29.9067V7.22253C0 5.51477 1.38111 4.12923 3.0834 4.12923H20.6524C21.1084 4.12923 21.3397 4.68344 21.0185 5.01211L18.9629 7.07431C18.8666 7.17097 18.7381 7.22253 18.5968 7.22253H3.0834V29.9067H25.695V22.5923C25.695 22.457 25.7464 22.3281 25.8427 22.2315ZM35.9023 9.22672L19.0336 26.1496L13.2265 26.7941C11.5435 26.981 10.111 25.5568 10.2973 23.8554L10.9396 18.0297L27.8084 1.10682C29.2795 -0.36894 31.6562 -0.36894 33.1209 1.10682L35.8959 3.89079C37.367 5.36655 37.367 7.75741 35.9023 9.22672ZM29.5557 11.218L25.8235 7.47386L13.8881 19.4539L13.4192 23.6621L17.6139 23.1917L29.5557 11.218ZM33.7183 6.08187L30.9432 3.29791C30.6798 3.03369 30.2494 3.03369 29.9925 3.29791L28.0075 5.28922L31.7397 9.03339L33.7247 7.04208C33.9816 6.77142 33.9816 6.34609 33.7183 6.08187Z" fill="white"/>
</svg>
