<svg width="37" height="28" viewBox="0 0 37 28" fill="none" xmlns="http://www.w3.org/2000/svg">
<path d="M33.5312 0H3.46875C1.55299 0 0 1.56698 0 3.5V24.5C0 26.433 1.55299 28 3.46875 28H33.5312C35.447 28 37 26.433 37 24.5V3.5C37 1.56698 35.447 0 33.5312 0ZM33.0977 24.5H3.90234C3.78735 24.5 3.67706 24.4539 3.59575 24.3719C3.51443 24.2898 3.46875 24.1785 3.46875 24.0625V3.9375C3.46875 3.82147 3.51443 3.71019 3.59575 3.62814C3.67706 3.54609 3.78735 3.5 3.90234 3.5H33.0977C33.2127 3.5 33.3229 3.54609 33.4043 3.62814C33.4856 3.71019 33.5312 3.82147 33.5312 3.9375V24.0625C33.5312 24.1785 33.4856 24.2898 33.4043 24.3719C33.3229 24.4539 33.2127 24.5 33.0977 24.5ZM9.25 6.41667C7.65358 6.41667 6.35938 7.72253 6.35938 9.33333C6.35938 10.9441 7.65358 12.25 9.25 12.25C10.8464 12.25 12.1406 10.9441 12.1406 9.33333C12.1406 7.72253 10.8464 6.41667 9.25 6.41667ZM6.9375 21H30.0625V15.1667L23.7382 8.78536C23.3995 8.44368 22.8505 8.44368 22.5118 8.78536L13.875 17.5L11.0194 14.6187C10.6808 14.277 10.1317 14.277 9.793 14.6187L6.9375 17.5V21Z" fill="white"/>
</svg>
